<?xml version="1.0" encoding="UTF-8"?>
<svg version="1.1" xmlns="http://www.w3.org/2000/svg" width="50" height="50">
<path d="M0 0 C1.67163195 0.65411685 3.34015202 1.31653318 5 2 C5.99 1.34 6.98 0.68 8 0 C12.7180481 -0.77286121 16.19654232 -0.42364132 20.4375 1.8125 C25.2571029 5.92679516 26.61627069 11.00383967 28 17 C27.071875 17.12375 27.071875 17.12375 26.125 17.25 C23.30107758 18.2466785 23.30203921 19.36697438 22 22 C19.55972712 24.92677948 16.86191721 27.59997889 14.1875 30.3125 C13.47529297 31.06595703 12.76308594 31.81941406 12.02929688 32.59570312 C11.33255859 33.30275391 10.63582031 34.00980469 9.91796875 34.73828125 C9.28656982 35.38837158 8.6551709 36.03846191 8.00463867 36.70825195 C6 38 6 38 3.50927734 37.93798828 C0.54823648 36.83112712 -0.89240614 35.53874086 -3.06640625 33.25390625 C-3.79923828 32.49916016 -4.53207031 31.74441406 -5.28710938 30.96679688 C-6.03798828 30.17337891 -6.78886719 29.37996094 -7.5625 28.5625 C-9.05914553 26.99683751 -10.56028359 25.43545416 -12.06640625 23.87890625 C-12.72584229 23.1835376 -13.38527832 22.48816895 -14.06469727 21.77172852 C-15.96170976 20.0350539 -17.65107205 19.01443611 -20 18 C-20 17.01 -20 16.02 -20 15 C-19.34 14.67 -18.68 14.34 -18 14 C-17.49869796 12.00919273 -17.49869796 12.00919273 -17.1875 9.6875 C-16.47767485 6.11565986 -16.17958596 5.17958596 -13.5 2.5 C-8.85792115 -0.28524731 -5.36466056 -0.41838774 0 0 Z " fill="#D0D5DD" transform="translate(21,6)"/>
<path d="M0 0 C1.67163195 0.65411685 3.34015202 1.31653318 5 2 C5.99 1.34 6.98 0.68 8 0 C12.7180481 -0.77286121 16.19654232 -0.42364132 20.4375 1.8125 C24.42414753 5.2157357 25.44434516 7.88797551 26 13 C24.11692557 14.88307443 20.78608313 14.36503069 18.2265625 14.5234375 C15.60926796 15.08363037 14.6826607 15.96995128 13 18 C12.34 17.01 11.68 16.02 11 15 C10.34 15 9.68 15 9 15 C8.34 17.97 7.68 20.94 7 24 C4.14132444 21.14132444 3.49887166 17.65826564 2.375 13.875 C2.14554688 13.12089844 1.91609375 12.36679687 1.6796875 11.58984375 C1.11414562 9.72826841 0.55633178 7.86434849 0 6 C-0.66 6 -1.32 6 -2 6 C-2.99 9.96 -3.98 13.92 -5 18 C-5.66 18 -6.32 18 -7 18 C-7.33 17.34 -7.66 16.68 -8 16 C-10.12576782 15.53348793 -10.12576782 15.53348793 -12.5625 15.375 C-13.38878906 15.30023438 -14.21507812 15.22546875 -15.06640625 15.1484375 C-15.70449219 15.09945313 -16.34257812 15.05046875 -17 15 C-18.16164233 11.34683515 -17.75006254 9.19435687 -16.06640625 5.68359375 C-12.24771957 -0.34517533 -6.47322408 -0.86150117 0 0 Z " fill="#4890F6" transform="translate(21,6)"/>
<path d="M0 0 C2.74858405 4.12287608 3.79106127 8.65445593 5.14453125 13.37109375 C5.70872486 15.2644306 6.3490292 17.13471828 7 19 C7.66 19.33 8.32 19.66 9 20 C9.66 16.04 10.32 12.08 11 8 C12.65 9.32 14.3 10.64 16 12 C16.309375 10.865625 16.61875 9.73125 16.9375 8.5625 C18 5 18 5 19 4 C20.99958364 3.95919217 23.00045254 3.95745644 25 4 C24.11567347 9.65065635 19.62443951 12.92845444 15.75 16.8125 C14.98558594 17.61365234 14.22117187 18.41480469 13.43359375 19.24023438 C12.68722656 19.99240234 11.94085937 20.74457031 11.171875 21.51953125 C10.4922168 22.21151611 9.81255859 22.90350098 9.11230469 23.61645508 C7 25 7 25 4.50219727 24.95166016 C1.55012564 23.82889938 0.00947862 22.49696738 -2.20703125 20.25390625 C-3.33334961 19.12178711 -3.33334961 19.12178711 -4.48242188 17.96679688 C-5.63581055 16.77666992 -5.63581055 16.77666992 -6.8125 15.5625 C-7.60076172 14.77294922 -8.38902344 13.98339844 -9.20117188 13.16992188 C-15 7.2807224 -15 7.2807224 -15 5 C-13.02 5 -11.04 5 -9 5 C-7.68 7.31 -6.36 9.62 -5 12 C-2.72573954 11.15570324 -2.72573954 11.15570324 -2.1484375 8.49609375 C-1.89320312 7.48675781 -1.63796875 6.47742188 -1.375 5.4375 C-1.11460938 4.42558594 -0.85421875 3.41367187 -0.5859375 2.37109375 C-0.39257812 1.58863281 -0.19921875 0.80617188 0 0 Z " fill="#4E92F5" transform="translate(20,19)"/>
</svg>
